<?xml version="1.0" encoding="UTF-8"?>
<svg xmlns="http://www.w3.org/2000/svg" id="Ebene_1" data-name="Ebene 1" version="1.1" viewBox="0 0 459.49 150.55">
  <defs>
    <style>
      .cls-1 {
        fill: #fff;
        stroke-width: 0px;
      }
    </style>
  </defs>
  <path class="cls-1" d="M22.1,91.83c2.68,0,5.39-.59,8.1-1.77,2.72-1.18,5.37-2.65,7.96-4.42,2.59-1.77,5.08-3.72,7.47-5.85,2.39-2.13,4.6-4.11,6.63-5.94.2-.2.39-.29.59-.29.52,0,1.03.21,1.52.64.49.43.74.9.74,1.42,0,.2-.1.39-.29.59-1.77,1.97-3.83,4.13-6.19,6.48s-4.9,4.55-7.61,6.58c-2.72,2.03-5.52,3.72-8.4,5.06-2.88,1.34-5.73,2.01-8.55,2.01s-5.35-.87-7.22-2.6c-1.87-1.73-2.8-4.11-2.8-7.12,0-2.29.54-4.55,1.62-6.78,1.08-2.23,2.51-4.22,4.27-5.99s3.78-3.19,6.04-4.27c2.26-1.08,4.53-1.62,6.83-1.62.79,0,1.57.13,2.36.39.79.26,1.52.64,2.21,1.13.69.49,1.24,1.07,1.67,1.72.43.66.64,1.41.64,2.26,0,.26-.03.67-.1,1.23-.07.56-.18,1.1-.34,1.62-.16.52-.39.98-.69,1.38-.29.39-.64.59-1.03.59-.52,0-1.07-.25-1.62-.74-.56-.49-.83-1.03-.83-1.62s.1-1.15.29-1.67c.2-.52.29-1.08.29-1.67,0-.33-.23-.49-.69-.49-1.83,0-3.68.54-5.55,1.62-1.87,1.08-3.54,2.46-5.01,4.13-1.47,1.67-2.69,3.5-3.63,5.5-.95,2-1.42,3.88-1.42,5.65,0,1.18.16,1.95.49,2.31.33.36,1.08.54,2.26.54Z"></path>
  <path class="cls-1" d="M48.92,88.98c0-1.64.21-3.24.64-4.81.43-1.57.93-3.11,1.52-4.62.52-1.24,1.03-2.46,1.52-3.63.49-1.18.97-2.39,1.42-3.64.26-.59.47-1.19.64-1.82.16-.62.34-1.19.54-1.72.26-.72.79-1.08,1.57-1.08.72,0,1.49.34,2.31,1.03.82.69,1.23,1.46,1.23,2.31,0,.39-.08.82-.25,1.28-.16.46-.31.85-.44,1.18-.46,1.24-1.02,2.6-1.67,4.08-.66,1.47-1.26,2.98-1.82,4.52-.56,1.54-1.03,3.08-1.42,4.62-.39,1.54-.59,2.96-.59,4.27,0,.46.13.69.39.69,1.83.07,3.91-.59,6.24-1.96,2.32-1.38,4.65-3.01,6.98-4.91,2.32-1.9,4.5-3.86,6.53-5.89s3.64-3.7,4.81-5.01c.2-.2.43-.29.69-.29.52,0,1.03.21,1.52.64.49.43.74.9.74,1.42,0,.13-.07.33-.2.59-1.25,1.7-2.85,3.72-4.81,6.04-1.96,2.33-4.09,4.55-6.39,6.68-2.29,2.13-4.65,3.93-7.07,5.4-2.42,1.47-4.78,2.21-7.07,2.21-2.1,0-3.88-.74-5.35-2.21s-2.21-3.26-2.21-5.35ZM57.37,61.96c0-.46.26-.85.79-1.18,1.24-.59,2.24-1.15,3-1.67.75-.52,1.39-.98,1.92-1.38.52-.39.95-.7,1.28-.93.33-.23.65-.34.98-.34.72,0,1.49.34,2.31,1.03.82.69,1.23,1.46,1.23,2.31,0,.46-.36.98-1.08,1.57-.72.59-1.56,1.13-2.51,1.62-.95.49-1.88.9-2.8,1.23-.92.33-1.61.49-2.06.49-.66,0-1.33-.28-2.01-.83-.69-.56-1.03-1.19-1.03-1.92Z"></path>
  <path class="cls-1" d="M101.68,90.46c1.38,0,3.08-.59,5.11-1.77,2.03-1.18,4.13-2.64,6.29-4.37,2.16-1.73,4.26-3.55,6.29-5.45,2.03-1.9,3.73-3.57,5.11-5.01.2-.2.39-.29.59-.29.52,0,1.03.2,1.52.59s.74.85.74,1.38c0,.13-.07.33-.2.59-1.05,1.44-2.59,3.23-4.62,5.35-2.03,2.13-4.22,4.19-6.58,6.19-2.36,2-4.73,3.7-7.12,5.11-2.39,1.41-4.54,2.11-6.44,2.11s-3.52-.74-4.86-2.21c-1.34-1.47-2.01-3.23-2.01-5.26,0-1.7.39-3.6,1.18-5.7.79-2.1,1.44-4.03,1.96-5.8-1.57,1.18-3.14,2.62-4.72,4.32-1.57,1.7-3.11,3.49-4.62,5.35-1.51,1.87-2.95,3.75-4.32,5.65-1.38,1.9-2.62,3.67-3.73,5.31-.66.92-1.31,1.9-1.96,2.95-.66,1.05-1.34,2.03-2.06,2.95-.46.52-.95.79-1.47.79-.79,0-1.57-.36-2.36-1.08-.79-.72-1.18-1.47-1.18-2.26,0-.39.31-1.59.93-3.59.62-2,1.44-4.39,2.46-7.17,1.01-2.78,2.11-5.8,3.29-9.04,1.18-3.24,2.31-6.34,3.39-9.28s2.06-5.57,2.95-7.86c.88-2.29,1.49-3.9,1.82-4.81-.2-.26-.38-.49-.54-.69-.16-.2-.25-.46-.25-.79s.06-.62.2-.88c1.18-2.95,2.26-5.63,3.24-8.06.98-2.42,1.93-4.78,2.85-7.07.92-2.29,1.82-4.65,2.7-7.07.88-2.42,1.82-5.11,2.8-8.06.2-.59.69-.88,1.47-.88.72,0,1.49.34,2.31,1.03.82.69,1.23,1.46,1.23,2.31,0,.79-.29,2.21-.88,4.27-.59,2.06-1.28,4.24-2.06,6.53-.79,2.29-1.56,4.5-2.31,6.63-.75,2.13-1.33,3.68-1.72,4.67-2.03,5.5-4.08,10.95-6.14,16.36-2.06,5.4-4.08,10.89-6.04,16.46,1.31-1.64,2.67-3.26,4.08-4.86,1.41-1.6,2.8-3.03,4.18-4.27,1.38-1.24,2.72-2.26,4.03-3.05,1.31-.79,2.52-1.18,3.63-1.18,1.38,0,2.49.53,3.34,1.57.85,1.05,1.28,2.23,1.28,3.54,0,1.18-.31,2.67-.93,4.47-.62,1.8-1.23,3.54-1.82,5.21-.59,1.67-.97,3.11-1.13,4.32-.16,1.21.21,1.82,1.13,1.82Z"></path>
  <path class="cls-1" d="M167.31,96.65c3.34-4.58,6.78-8.74,10.32-12.48,3.54-3.73,7.01-7.17,10.41-10.32.2-.2.42-.29.69-.29.52,0,1.05.21,1.57.64.52.43.79.9.79,1.42,0,.2-.1.39-.29.59-6.29,6.68-12.05,13.48-17.29,20.39-5.24,6.91-9.66,14.46-13.26,22.65-.26.46-.72.69-1.38.69-.72,0-1.47-.34-2.26-1.03-.79-.69-1.18-1.42-1.18-2.21,0-.85.28-2.31.83-4.37.56-2.06,1.21-4.27,1.97-6.63.75-2.36,1.51-4.6,2.26-6.73.75-2.13,1.33-3.72,1.72-4.77,2.42-6.88,4.88-13.69,7.37-20.44,2.49-6.75,4.98-13.52,7.47-20.34.26-.72.51-1.44.74-2.16.23-.72.47-1.44.74-2.16-4.52.66-9.02,1.41-13.51,2.26-4.49.85-8.96,1.8-13.41,2.85,3.93,1.51,7.04,3.73,9.33,6.68,2.29,2.95,3.44,6.75,3.44,11.4,0,2.49-.46,5.06-1.38,7.71-.92,2.65-2.18,5.09-3.78,7.32-1.61,2.23-3.54,4.04-5.8,5.45-2.26,1.41-4.76,2.11-7.52,2.11-2.03,0-3.6-.64-4.72-1.92-1.11-1.28-1.83-2.86-2.16-4.76-.66.79-1.41,1.65-2.26,2.6-.85.95-1.77,1.85-2.75,2.7-.98.85-2,1.57-3.05,2.16-1.05.59-2.1.88-3.14.88-2.23,0-3.91-.83-5.06-2.51-1.15-1.67-1.72-3.52-1.72-5.55,0-2.16.49-4.45,1.47-6.88.98-2.42,2.29-4.67,3.93-6.73,1.64-2.06,3.52-3.77,5.65-5.11,2.13-1.34,4.34-2.01,6.63-2.01,1.57,0,3.05.21,4.42.64,1.38.43,2.57.97,3.59,1.62,1.02.66,1.82,1.39,2.41,2.21.59.82.88,1.65.88,2.5s-.46,1.28-1.38,1.28c-.79,0-1.33-.2-1.62-.59s-.64-.82-1.03-1.28c-.39-.46-.93-.88-1.62-1.28-.69-.39-1.79-.59-3.29-.59-1.83,0-3.65.59-5.45,1.77-1.8,1.18-3.41,2.7-4.81,4.57-1.41,1.87-2.54,3.95-3.39,6.24-.85,2.29-1.28,4.52-1.28,6.68.65,0,1.67-.6,3.05-1.82,1.38-1.21,2.85-2.64,4.42-4.27,1.57-1.64,3.09-3.31,4.57-5.01,1.47-1.7,2.6-3.08,3.39-4.13.26-.33.65-.49,1.18-.49,1.05,0,1.88.41,2.5,1.23.62.82.93,1.69.93,2.6-.52,1.7-1.05,3.36-1.57,4.96-.52,1.61-.79,3.32-.79,5.16,0,.46.2.69.59.69,2.16,0,4.19-.64,6.09-1.92,1.9-1.28,3.59-2.91,5.06-4.91,1.47-2,2.64-4.24,3.49-6.73.85-2.49,1.28-4.94,1.28-7.37,0-1.96-.33-3.67-.98-5.11-.66-1.44-1.54-2.67-2.65-3.68-1.11-1.01-2.44-1.85-3.98-2.5-1.54-.65-3.19-1.15-4.96-1.47-.79-.2-1.59-.33-2.41-.39-.82-.06-1.62-.16-2.41-.29-.52-.06-1.08-.29-1.67-.69-.59-.39-.95-.88-1.08-1.47-.2-.39-.29-.79-.29-1.18,0-.65.36-1.11,1.08-1.38,6.35-1.7,12.87-3.21,19.55-4.52,6.68-1.31,13.3-2.36,19.85-3.14l1.47-4.42c.39-1.11.75-2.19,1.08-3.24.33-1.05.59-2.13.79-3.24l.29-1.28c.13-.52.28-.95.44-1.28.16-.33.57-.49,1.23-.49.72,0,1.49.36,2.31,1.08.82.72,1.23,1.47,1.23,2.26,0,.39-.08.95-.25,1.67-.16.72-.36,1.54-.59,2.46-.23.92-.51,1.88-.83,2.9-.33,1.02-.66,2.01-.98,3,1.83-.13,3.65-.25,5.45-.34,1.8-.1,3.65-.15,5.55-.15,1.77,0,3.86.07,6.29.2,2.42.13,4.85.43,7.27.88,2.42.46,4.68,1.15,6.78,2.06,2.1.92,3.73,2.13,4.91,3.63.26.33.57.79.93,1.38.36.59.54,1.08.54,1.47,0,.72-.36,1.08-1.08,1.08-.46,0-.82-.1-1.08-.29-.26-.2-.49-.43-.69-.69-.2-.26-.39-.54-.59-.83-.2-.29-.46-.57-.79-.83-.39-.33-.82-.6-1.28-.83-.46-.23-.95-.44-1.47-.64-1.18-.39-2.46-.7-3.83-.93-1.38-.23-2.8-.39-4.27-.49-1.47-.1-2.92-.16-4.32-.2-1.41-.03-2.74-.05-3.98-.05-5.44,0-10.81.29-16.11.88l-.29.69c-2.75,7.99-5.57,15.92-8.45,23.77-2.88,7.86-5.8,15.79-8.74,23.78Z"></path>
  <path class="cls-1" d="M233.82,73.36c.59-.98,1.06-1.83,1.42-2.55.36-.72.7-1.46,1.03-2.21.33-.75.65-1.54.98-2.36.33-.82.69-1.78,1.08-2.9l13.66-37.63c.26-.52.75-.79,1.47-.79.79,0,1.6.36,2.46,1.08.85.72,1.28,1.47,1.28,2.26-.92,2.69-2.08,5.94-3.49,9.78-1.41,3.83-2.92,7.99-4.52,12.48-1.61,4.49-3.24,9.12-4.91,13.9-1.67,4.78-3.29,9.5-4.86,14.15-1.18,3.41-2.29,6.75-3.34,10.02-1.05,3.28-2,6.35-2.85,9.24-.85,2.88-1.52,5.5-2.01,7.86s-.74,4.35-.74,5.99v1.87c0,.72.02,1.47.05,2.26.03.79.13,1.52.29,2.21.16.69.38,1.23.64,1.62.33.52.74.93,1.23,1.23.49.29.74.8.74,1.52,0,.79-.39,1.18-1.18,1.18-.66,0-1.31-.25-1.96-.74-.66-.49-1.18-.97-1.57-1.42-1.51-1.83-2.44-4.01-2.8-6.53-.36-2.52-.48-4.93-.34-7.22.26-3.8.98-7.88,2.16-12.23,1.18-4.35,2.49-8.43,3.93-12.23-2.49,3.87-5.13,7.04-7.91,9.53-2.78,2.49-5.42,3.73-7.91,3.73-2.03,0-3.59-.74-4.67-2.21s-1.62-3.16-1.62-5.06.48-4.18,1.42-6.63,2.21-4.76,3.78-6.93c1.57-2.16,3.39-3.99,5.45-5.5,2.06-1.51,4.21-2.26,6.44-2.26,1.44,0,2.86.49,4.27,1.47,1.41.98,2.37,2.33,2.9,4.03ZM227.73,82.1c-.59-.59-.88-1.15-.88-1.67,0-.26.16-.62.49-1.08.33-.46.69-.98,1.08-1.57s.75-1.24,1.08-1.96c.33-.72.49-1.41.49-2.06,0-1.05-.46-1.57-1.38-1.57-1.57,0-3.19.7-4.86,2.11-1.67,1.41-3.18,3.13-4.52,5.16-1.34,2.03-2.46,4.16-3.34,6.39-.88,2.23-1.33,4.16-1.33,5.8,0,.2.1.29.29.29,1.18,0,2.39-.36,3.64-1.08,1.24-.72,2.46-1.59,3.64-2.6,1.18-1.01,2.26-2.1,3.24-3.24.98-1.15,1.77-2.11,2.36-2.9Z"></path>
  <path class="cls-1" d="M249.44,87.51c0-2.36.47-4.63,1.42-6.83.95-2.19,2.18-4.18,3.68-5.94-.07-.33-.1-.67-.1-1.03v-1.13c0-1.9.75-3.4,2.26-4.52,1.51-1.11,3.14-1.67,4.91-1.67,1.57,0,2.98.29,4.22.88,1.24.59,2.31,1.41,3.19,2.46.88,1.05,1.57,2.24,2.06,3.59.49,1.34.74,2.77.74,4.27,0,.59-.03,1.2-.1,1.82-.07.62-.16,1.23-.29,1.82,2.42-.52,4.62-1.47,6.58-2.85s3.9-2.91,5.8-4.62c.2-.2.39-.29.59-.29.52,0,1.03.21,1.52.64.49.43.74.9.74,1.42,0,.07-.1.26-.29.59-2.1,2.36-4.5,4.36-7.22,5.99-2.72,1.64-5.68,2.65-8.89,3.05-.59,1.51-1.33,2.95-2.21,4.32s-1.88,2.57-3,3.59c-1.11,1.02-2.33,1.83-3.63,2.46-1.31.62-2.69.93-4.13.93-1.18,0-2.24-.26-3.19-.79-.95-.52-1.77-1.2-2.46-2.01-.69-.82-1.23-1.77-1.62-2.85-.39-1.08-.59-2.18-.59-3.29ZM253.18,56.46c0-1.05.29-1.95.88-2.7.59-.75,1.44-1.13,2.55-1.13,1.31,0,2.37.31,3.19.93.82.62,1.23,1.59,1.23,2.9,0,.98-.29,1.87-.88,2.65-.59.79-1.44,1.18-2.55,1.18s-2.13-.34-3.05-1.03c-.92-.69-1.38-1.62-1.38-2.8ZM257.11,80.53c-.85,1.31-1.52,2.67-2.01,4.08-.49,1.41-.74,2.96-.74,4.67,0,.72.08,1.31.25,1.77.16.46.38.69.64.69.79,0,1.6-.26,2.46-.79.85-.52,1.67-1.13,2.46-1.82.79-.69,1.49-1.44,2.11-2.26.62-.82,1.13-1.52,1.52-2.11-2.82-.65-5.04-2.06-6.68-4.22ZM259.37,77.49c.46,1.44,1.23,2.46,2.31,3.05,1.08.59,2.31.95,3.68,1.08.92-2.03,1.38-4.03,1.38-5.99,0-1.11-.16-2.18-.49-3.19-.33-1.01-1.21-1.52-2.65-1.52-.79,0-1.56.18-2.31.54-.75.36-1.36.87-1.82,1.52.92.66,1.38,1.44,1.38,2.36,0,.39-.13.72-.39.98-.2.26-.56.66-1.08,1.18ZM264.18,56.46c0-1.05.31-1.95.93-2.7.62-.75,1.49-1.13,2.6-1.13,1.24,0,2.27.31,3.09.93.82.62,1.23,1.59,1.23,2.9,0,.98-.28,1.87-.83,2.65-.56.79-1.39,1.18-2.51,1.18s-2.15-.34-3.09-1.03c-.95-.69-1.42-1.62-1.42-2.8Z"></path>
  <path class="cls-1" d="M301.91,74.93c-1.64,1.38-3.26,2.88-4.86,4.52-1.61,1.64-3.11,3.26-4.52,4.86-1.41,1.61-2.75,3.18-4.03,4.72-1.28,1.54-2.44,2.9-3.49,4.08-.53.52-1.18.79-1.97.79-.72,0-1.49-.34-2.31-1.03-.82-.69-1.23-1.46-1.23-2.31,0-.72.18-1.65.54-2.8.36-1.15.7-2.08,1.03-2.8.26-.65.69-1.75,1.28-3.29.59-1.54,1.19-3.14,1.82-4.81.62-1.67,1.16-3.23,1.62-4.67.46-1.44.69-2.39.69-2.85,0-1.11.65-1.67,1.96-1.67.92,0,1.73.36,2.46,1.08.72.72,1.08,1.54,1.08,2.46s-.28,2.21-.83,3.88c-.56,1.67-1.2,3.36-1.92,5.06.79-.92,1.98-2.13,3.59-3.64,1.6-1.51,3.29-2.96,5.06-4.37,1.77-1.41,3.44-2.64,5.01-3.68,1.57-1.05,2.72-1.57,3.44-1.57.79,0,1.59.36,2.41,1.08.82.72,1.23,1.51,1.23,2.36,0,.26-.03.46-.1.59-.52,1.38-1.1,2.78-1.72,4.22-.62,1.44-1.21,2.88-1.77,4.32-.56,1.44-1.02,2.9-1.38,4.37-.36,1.47-.54,2.96-.54,4.47,0,.79.06,1.29.2,1.52.13.23.36.34.69.34,1.64,0,3.5-.64,5.6-1.92,2.1-1.28,4.18-2.78,6.24-4.52,2.06-1.73,4.01-3.52,5.85-5.35s3.34-3.31,4.52-4.42c.2-.2.43-.29.69-.29.52,0,1.03.21,1.52.64.49.43.74.9.74,1.42,0,.13-.07.33-.2.59-1.11,1.44-2.57,3.21-4.37,5.31-1.8,2.1-3.77,4.13-5.89,6.09-2.13,1.96-4.31,3.63-6.53,5.01-2.23,1.38-4.32,2.06-6.29,2.06-2.55,0-4.59-.74-6.09-2.21-1.51-1.47-2.26-3.09-2.26-4.86,0-1.51.29-3.44.88-5.8.59-2.36,1.31-4.68,2.16-6.98Z"></path>
  <path class="cls-1" d="M360.95,89.57c.72,0,1.85-.54,3.39-1.62,1.54-1.08,3.24-2.41,5.11-3.98,1.87-1.57,3.78-3.26,5.75-5.06,1.96-1.8,3.73-3.45,5.31-4.96.2-.2.39-.29.59-.29.52,0,1.03.21,1.52.64.49.43.74.9.74,1.42,0,.2-.1.39-.29.59-.59.66-1.38,1.57-2.36,2.75-.98,1.18-2.11,2.44-3.39,3.78-1.28,1.34-2.62,2.74-4.03,4.18-1.41,1.44-2.83,2.74-4.27,3.88-1.44,1.15-2.85,2.08-4.22,2.8-1.38.72-2.65,1.08-3.83,1.08-.33,0-.77-.11-1.33-.34-.56-.23-1.1-.56-1.62-.98-.52-.43-.97-.98-1.33-1.67-.36-.69-.54-1.49-.54-2.41,0-.59.15-1.39.44-2.41.29-1.02.64-2.1,1.03-3.24.39-1.15.79-2.24,1.18-3.29.39-1.05.69-1.87.88-2.46-.26,0-.85.33-1.77.98-.92.66-2,1.47-3.24,2.46-1.25.98-2.55,2.06-3.93,3.24-1.38,1.18-2.67,2.26-3.88,3.24-1.21.98-2.26,1.8-3.14,2.46-.88.66-1.46.98-1.72.98-.72,0-1.42-.33-2.11-.98-.69-.65-1.03-1.34-1.03-2.06,0-.26.16-.9.49-1.92.33-1.01.69-2.11,1.08-3.29.39-1.18.77-2.29,1.13-3.34.36-1.05.6-1.77.74-2.16-2.62,2.69-5.06,5.39-7.32,8.11-2.26,2.72-4.41,5.32-6.44,7.81-.33.33-.82.49-1.47.49-.79,0-1.61-.36-2.46-1.08-.85-.72-1.28-1.51-1.28-2.36,0-.46.18-1.26.54-2.41.36-1.15.8-2.47,1.33-3.98.52-1.51,1.1-3.09,1.72-4.76.62-1.67,1.19-3.23,1.72-4.67.52-1.44.97-2.68,1.33-3.73.36-1.05.54-1.7.54-1.97,0-.46.16-.8.49-1.03.33-.23.75-.34,1.28-.34.72,0,1.49.34,2.31,1.03.82.69,1.23,1.46,1.23,2.31,0,.46-.16,1.21-.49,2.26-.33,1.05-.7,2.16-1.13,3.34-.43,1.18-.88,2.36-1.38,3.54-.49,1.18-.93,2.16-1.33,2.95.65-1.05,1.77-2.44,3.34-4.18,1.57-1.73,3.21-3.42,4.91-5.06,1.7-1.64,3.29-3.06,4.77-4.27,1.47-1.21,2.41-1.82,2.8-1.82.72,0,1.46.34,2.21,1.03.75.69,1.13,1.39,1.13,2.11,0,.07-.21.64-.64,1.72-.43,1.08-.9,2.26-1.42,3.54-.52,1.28-1.02,2.51-1.47,3.68-.46,1.18-.75,1.93-.88,2.26.65-.52,1.72-1.31,3.19-2.36,1.47-1.05,3.05-2.13,4.72-3.24,1.67-1.11,3.27-2.08,4.81-2.9,1.54-.82,2.7-1.23,3.49-1.23.2,0,.46.1.79.29.33.2.65.46.98.79.33.33.62.7.88,1.13.26.43.39.9.39,1.42,0,.33-.13.88-.39,1.67-.26.79-.57,1.69-.93,2.7-.36,1.02-.75,2.06-1.18,3.14-.43,1.08-.8,2.06-1.13,2.95-.33.88-.59,1.62-.79,2.21-.2.59-.23.88-.1.88Z"></path>
  <path class="cls-1" d="M386.2,89.77c2.69,0,5.27-.41,7.76-1.23,2.49-.82,4.98-1.95,7.47-3.39,2.49-1.44,4.99-3.13,7.52-5.06,2.52-1.93,5.12-4.01,7.81-6.24.2-.2.39-.29.59-.29.52,0,1.03.21,1.52.64.49.43.74.9.74,1.42,0,.2-.1.39-.29.59-1.64,2.03-3.62,4.14-5.94,6.34-2.33,2.2-4.86,4.19-7.61,5.99-2.75,1.8-5.58,3.28-8.5,4.42-2.92,1.15-5.78,1.72-8.6,1.72-3.08,0-5.5-.85-7.27-2.55-1.77-1.7-2.65-4.09-2.65-7.17,0-2.16.41-4.39,1.23-6.68.82-2.29,1.95-4.37,3.39-6.24,1.44-1.87,3.16-3.39,5.16-4.57,2-1.18,4.18-1.77,6.53-1.77,1.57,0,3.06.56,4.47,1.67,1.41,1.11,2.11,2.52,2.11,4.22,0,1.57-.51,3.11-1.52,4.62-1.02,1.51-2.28,2.85-3.78,4.03-1.51,1.18-3.13,2.11-4.86,2.8-1.74.69-3.36,1.03-4.86,1.03h-1.08c-.39,0-.82-.06-1.28-.2-.26,1.05-.39,2.13-.39,3.24s.15,1.83.44,2.16c.29.33.93.49,1.92.49ZM385.61,79.94c1.64-.26,3.11-.75,4.42-1.47,1.31-.72,2.44-1.56,3.39-2.51.95-.95,1.69-1.9,2.21-2.85.52-.95.79-1.75.79-2.41,0-.13-.07-.2-.2-.2-2.16.07-4.19,1.03-6.09,2.9-1.9,1.87-3.41,4.04-4.52,6.53Z"></path>
  <path class="cls-1" d="M432.47,75.52c-1.7.2-3.39.38-5.06.54-1.67.16-3.36.25-5.06.25-1.38,0-2.6-.25-3.68-.74-1.08-.49-1.62-1.59-1.62-3.29,0-.46.11-.9.34-1.33.23-.43.6-.64,1.13-.64.26,0,.47.05.64.15.16.1.51.15,1.03.15,2.82,0,5.85-.2,9.09-.59,3.24-.39,6.24-.75,8.99-1.08.39-.06.79-.11,1.18-.15.39-.03.79-.05,1.18-.05.85,0,1.51.44,1.96,1.33.46.88.69,1.69.69,2.41,0,.85-.92,2.06-2.75,3.63-1.51,1.25-3.11,2.54-4.81,3.88-1.7,1.34-3.42,2.69-5.16,4.03-1.74,1.34-3.46,2.7-5.16,4.08-1.7,1.38-3.28,2.72-4.72,4.03,1.11-.26,2.36-.54,3.73-.83,1.38-.29,2.77-.57,4.17-.84,1.41-.26,2.82-.47,4.22-.64,1.41-.16,2.7-.25,3.88-.25.72,0,1.46.03,2.21.1.75.07,1.44.23,2.06.49.62.26,1.13.67,1.52,1.23.39.56.59,1.29.59,2.21,0,.33-.1.7-.29,1.13-.2.43-.56.64-1.08.64-.33,0-.66-.08-.98-.25-.33-.16-.72-.25-1.18-.25-1.96,0-4.21.2-6.73.59-2.52.39-4.95.83-7.27,1.33-2.33.49-4.36.93-6.09,1.33-1.74.39-2.8.59-3.19.59-.85,0-1.51-.44-1.96-1.33-.46-.88-.69-1.69-.69-2.41,0-.92.38-1.95,1.13-3.09.75-1.15,1.7-2.34,2.85-3.59,1.15-1.24,2.44-2.51,3.88-3.78,1.44-1.28,2.86-2.49,4.27-3.63,1.41-1.15,2.72-2.19,3.93-3.14,1.21-.95,2.14-1.69,2.8-2.21Z"></path>
</svg>
