<?xml version="1.0" encoding="UTF-8"?>
<svg xmlns="http://www.w3.org/2000/svg" xmlns:xlink="http://www.w3.org/1999/xlink" version="1.1" id="Ebene_1" x="0px" y="0px" viewBox="0 0 35.7862701 18.2899837" style="enable-background:new 0 0 35.7862701 18.2899837;" xml:space="preserve">
    <title>bh-mischleistung-mischer</title>
    <g>
        <path class="default" d="M32.3097534,6.2581706l-2.210022,0.460022v0.7092285l-2.748291-0.0008545   c-0.1799316-0.4205322-0.5168457-0.7575684-0.9373169-0.9376221l0.0008545-2.7485962h0.7008667l0.4699707-2.2200317   c-0.4099731-0.5899658-1.0999756-0.9799805-1.8699951-0.9799805c-0.7799683,0-1.4699707,0.3900146-1.8699951,0.9899902   l0.460022,2.210022h0.7087402l-0.0008545,2.7485964c-0.420105,0.1799316-0.7567749,0.5164795-0.9368286,0.9365234   l-2.7489014-0.0008545V6.7242351l-2.2200317-0.4699707c-0.5899658,0.4099731-0.9799805,1.0999756-0.9799805,1.8699956   c0,0.7799683,0.3900146,1.4699707,0.9899902,1.8699951l2.210022-0.460022V8.8250046l2.748291,0.0008545   c0.1798096,0.4202881,0.5165405,0.757019,0.9366455,0.9371948l-0.0004272,2.7490234h-0.7006226l-0.4699707,2.2200317   c0.4099731,0.5899658,1.0999756,0.9799805,1.8699951,0.9799805c0.7799683,0,1.4699707-0.3900146,1.8699951-0.9899902   l-0.460022-2.210022h-0.7089844l0.0004272-2.7481689c0.4204712-0.1798096,0.7573242-0.5166626,0.9375-0.9369507   l2.7489014,0.0008545v0.7003784l2.2200317,0.4699707c0.5899658-0.4099731,0.9799805-1.0999756,0.9799805-1.8699951   C33.2997437,7.3481975,32.909729,6.658195,32.3097534,6.2581706z"></path>
        <path class="default" d="M16.0249405,11.4693041l-1.8880062-1.2374372l-0.5015011,0.5015001l-1.9427309-1.9439392   c0.1701307-0.424592,0.1702166-0.9011474,0.0002165-1.3257828l1.9441547-1.9429464l0.4955873,0.4955873l1.9021196-1.2374802   c0.1272736-0.7070637-0.0848494-1.4707506-0.6293354-2.0152366c-0.5515213-0.5515208-1.3152084-0.7636443-2.022315-0.6222575   l-1.2374372,1.8880057l0.5011549,0.5011554L10.702693,6.4734192c-0.4242907-0.1698279-0.9003267-0.1699142-1.3246603-0.0002155   L7.4348702,4.5288324l0.4952421-0.4952421L6.6926327,2.1314716C5.985569,2.0041976,5.2218814,2.216321,4.6773953,2.760807   C4.1258745,3.3123279,3.9137511,4.076015,4.0551381,4.7831216l1.8880062,1.2374372l0.5015001-0.5015006l1.9427314,1.9439397   C8.2173319,7.887331,8.2173319,8.3635406,8.3869867,8.788003L6.442832,10.731554l-0.4954152-0.4954147l-1.9021187,1.2374802   c-0.1272743,0.7070637,0.0848494,1.4707508,0.6293354,2.0152369c0.5515208,0.5515213,1.315208,0.7636442,2.022315,0.6222572   l1.2374368-1.8880062l-0.5013275-0.5013275l1.9435511-1.9429464c0.4244623,0.1701736,0.9008446,0.1701736,1.3254366,0.0003881   l1.9431629,1.9443712l-0.4952431,0.4952421l1.2374802,1.9021196c0.7070637,0.1272736,1.4707508-0.0848494,2.0152369-0.6293354   C15.9542036,12.9400978,16.1663265,12.1764107,16.0249405,11.4693041z"></path>
    </g>
    <path class="highlight" fill="currentColor" d="M25.7324219,18.2899837c-2.0810547,0-4.0771484-0.6289062-5.7734375-1.8183594  c-1.2700195-0.8857422-2.8510742-0.8867188-4.1220703,0.0019531c-1.6948242,1.1875-3.6914062,1.8164062-5.7714844,1.8164062  c-5.5493164,0-10.0639648-4.5146484-10.0639648-10.0639648c0-1.7695312,0.4682617-3.512207,1.3535156-5.0390625l1.7304688,1.0029297  C2.3764648,5.4125423,2.0014648,6.8085384,2.0014648,8.2260189c0,4.4467773,3.6176758,8.0639648,8.0639648,8.0639648  c1.6669922,0,3.2666016-0.5029297,4.6254883-1.4560547c1.9487305-1.359375,4.4672852-1.3603516,6.4145508-0.0009766  c1.3603516,0.9541016,2.9589844,1.4570312,4.6269531,1.4570312c4.4462891,0,8.0634766-3.6171875,8.0634766-8.0639648  c0-1.4189453-0.3740234-2.8144531-1.0830078-4.0361328l1.7304688-1.0029297  c0.8847656,1.5258789,1.3525391,3.2685547,1.3525391,5.0390625C35.7958984,13.7753353,31.28125,18.2899837,25.7324219,18.2899837z"></path>
</svg>
